<?xml version="1.0" encoding="utf-8"?>
<!-- Generator: Adobe Illustrator 23.0.3, SVG Export Plug-In . SVG Version: 6.00 Build 0)  -->
<svg version="1.1" id="Layer_1" xmlns="http://www.w3.org/2000/svg" xmlns:xlink="http://www.w3.org/1999/xlink" x="0px" y="0px"
	 viewBox="0 0 572.7 267.8" style="enable-background:new 0 0 572.7 267.8;" xml:space="preserve">
<style type="text/css">
	.st0{enable-background:new    ;}
	.st1{fill:#FFFFFF;}
</style>
<g>
	<g class="st0">
		<path class="st1" d="M87.2,89.4c7.5,14.3,15.4,29.1,23.7,44.1c1.1-2,2.6-4.9,4.7-8.7c2-3.8,4.4-8.2,7.1-13.1
			c2.7-4.9,5.5-10.2,8.6-16c3-5.7,6.2-11.5,9.3-17.4c3.2-5.9,6.3-11.7,9.4-17.3c3.1-5.7,6-11,8.7-15.9h2.1
			c1.2,10.3,2.3,20.2,3.3,29.8c1,9.6,2.1,19,3.1,28.2c1.1,9.3,2.1,18.4,3.2,27.4c1.1,9,2.2,18,3.5,26.9c-1.3-0.2-2.5-0.3-3.8-0.3
			c-1.2,0-2.5,0-3.8,0s-2.5,0-3.8,0c-1.2,0-2.5,0.1-3.8,0.3c-1.2-14.2-2.4-28-3.5-41.4c-1.2-13.4-2.6-27-4.3-40.9h-0.3
			c-7.4,13.5-14.6,26.9-21.7,40.2c-7.1,13.3-13.9,27.3-20.3,41.8h-1.4c-6.4-13.5-13.1-27-20.1-40.5S73.1,89.2,66,75.1h-0.3
			c-0.8,6.6-1.6,13.8-2.5,21.6c-0.9,7.8-1.7,15.4-2.5,23c-0.8,7.5-1.4,14.7-1.9,21.3c-0.5,6.7-0.8,12.2-0.8,16.5
			c-1.7-0.2-3.6-0.3-5.6-0.3s-3.9,0.1-5.6,0.3c1.4-8.7,2.8-17.8,4.3-27.4c1.5-9.6,2.9-19.3,4.3-29.1c1.4-9.7,2.7-19.3,3.9-28.8
			c1.2-9.5,2.2-18.5,3-27H65C72.1,60.3,79.6,75.1,87.2,89.4z"/>
		<path class="st1" d="M285.8,157.5c-1.5-0.2-2.9-0.3-4.3-0.3c-1.3,0-2.8,0-4.3,0s-2.9,0-4.3,0c-1.3,0-2.8,0.1-4.3,0.3
			c-0.8-2.5-1.8-5.4-3-8.9c-1.3-3.5-2.7-7.1-4.3-10.9c-1.6-3.8-3.1-7.6-4.7-11.6c-1.6-3.9-3.1-7.6-4.5-11.2
			c-3.4-0.1-6.9-0.2-10.4-0.2c-3.5-0.1-7.1-0.1-10.6-0.1c-3.3,0-6.6,0-9.8,0.1s-6.5,0.1-9.8,0.2c-3.4,8.3-6.5,16.3-9.3,23.8
			s-4.9,13.8-6.3,18.7c-1.8-0.2-3.8-0.3-5.9-0.3c-2.1,0-4.1,0.1-5.9,0.3c8.7-18.7,17.1-37.3,25.4-55.9C217.7,83,226,64.2,234.4,45h3
			c2.6,6.2,5.3,12.9,8.3,20.1s6,14.5,9.1,21.9c3.1,7.4,6.2,14.7,9.3,22c3.1,7.3,6,14,8.7,20.3s5.2,11.9,7.4,16.8
			C282.6,151.2,284.4,154.9,285.8,157.5z M214.7,107.6c2.8,0,5.7,0.1,8.7,0.2c3,0.1,5.9,0.2,8.7,0.2c3,0,6,0,9-0.1s6-0.1,9-0.2
			l-17.9-40.9L214.7,107.6z"/>
		<path class="st1" d="M304.2,142.5c1.4,2,3.2,3.8,5.3,5.4c2.1,1.6,4.5,2.9,7.3,3.9s5.9,1.5,9.3,1.5c3.5,0,6.7-0.6,9.5-1.8
			s5.2-2.9,7.2-5s3.5-4.5,4.6-7.4c1.1-2.8,1.6-5.9,1.6-9.1c0-4.9-1.3-8.8-3.8-11.7s-5.6-5.3-9.4-7.2c-3.7-1.9-7.8-3.7-12.1-5.3
			c-4.3-1.6-8.4-3.6-12.1-6s-6.9-5.5-9.4-9.2s-3.8-8.8-3.8-15.1c0-4.5,0.8-8.6,2.4-12.3c1.6-3.7,3.9-6.9,7-9.5c3-2.7,6.7-4.8,11-6.3
			s9.1-2.2,14.4-2.2c5.1,0,9.6,0.6,13.3,1.8c3.7,1.2,7.2,3.1,10.4,5.7c-1,1.8-1.8,3.7-2.4,5.8c-0.6,2-1.3,4.6-1.9,7.7h-1.9
			c-0.5-1.5-1.3-3.1-2.2-4.9c-0.9-1.8-2.1-3.4-3.7-4.9s-3.4-2.8-5.5-3.8s-4.7-1.5-7.7-1.5s-5.8,0.5-8.3,1.4c-2.5,1-4.7,2.3-6.6,4.1
			c-1.9,1.8-3.3,3.9-4.3,6.3c-1,2.5-1.5,5.1-1.5,8c0,5,1.3,9,3.8,11.9s5.6,5.3,9.4,7.3c3.7,2,7.8,3.7,12.1,5.3
			c4.3,1.6,8.4,3.5,12.1,5.7s6.9,5.1,9.4,8.7c2.5,3.5,3.8,8.2,3.8,14.1c0,4.9-0.9,9.6-2.6,14c-1.8,4.4-4.3,8.2-7.7,11.5
			c-3.4,3.3-7.5,5.8-12.4,7.5c-4.9,1.8-10.4,2.6-16.6,2.6c-6.6,0-12-0.9-16.1-2.6c-4.1-1.8-7.6-3.8-10.4-6c1-2.5,1.6-4.7,2-6.7
			s0.7-4.5,1-7.6h1.9C301.6,138.5,302.7,140.5,304.2,142.5z"/>
		<path class="st1" d="M384.1,68c-0.3-6.8-0.6-13.7-0.9-20.8c1.4,0.2,2.7,0.4,4,0.6s2.6,0.2,3.9,0.2s2.6-0.1,3.9-0.2s2.6-0.3,4-0.6
			c-0.3,7.1-0.6,14-0.9,20.8s-0.4,13.7-0.4,20.8v27.6c0,7.1,0.1,14,0.4,20.9c0.3,6.8,0.6,13.6,0.9,20.2c-2.5-0.2-5.1-0.3-7.9-0.3
			s-5.4,0.1-7.9,0.3c0.3-6.6,0.6-13.4,0.9-20.2s0.4-13.8,0.4-20.9V88.8C384.5,81.7,384.4,74.8,384.1,68z"/>
		<path class="st1" d="M517.7,157.5c-1.5-0.2-2.9-0.3-4.3-0.3c-1.3,0-2.8,0-4.3,0s-2.9,0-4.3,0c-1.3,0-2.8,0.1-4.3,0.3
			c-0.8-2.5-1.8-5.4-3-8.9c-1.3-3.5-2.7-7.1-4.3-10.9c-1.6-3.8-3.1-7.6-4.7-11.6c-1.6-3.9-3.1-7.6-4.5-11.2
			c-3.4-0.1-6.9-0.2-10.4-0.2c-3.5-0.1-7.1-0.1-10.6-0.1c-3.3,0-6.6,0-9.8,0.1c-3.2,0.1-6.5,0.1-9.8,0.2c-3.4,8.3-6.5,16.3-9.3,23.8
			s-4.9,13.8-6.3,18.7c-1.8-0.2-3.8-0.3-5.9-0.3s-4.1,0.1-5.9,0.3c8.7-18.7,17.1-37.3,25.4-55.9c8.2-18.5,16.5-37.3,24.9-56.5h3
			c2.6,6.2,5.3,12.9,8.3,20.1s6,14.5,9.1,21.9s6.2,14.7,9.3,22c3.1,7.3,6,14,8.7,20.3s5.2,11.9,7.4,16.8
			C514.5,151.2,516.3,154.9,517.7,157.5z M446.6,107.6c2.8,0,5.7,0.1,8.7,0.2c3,0.1,5.9,0.2,8.7,0.2c3,0,6,0,9-0.1s6-0.1,9-0.2
			l-17.9-40.9L446.6,107.6z"/>
	</g>
	<g class="st0">
		<path class="st1" d="M225.2,225c-1,0.5-2.3,1-3.8,1.4s-3.1,0.8-4.9,1.1c-1.8,0.3-3.7,0.5-5.7,0.5c-4.2,0-8.1-0.6-11.7-1.8
			c-3.6-1.2-6.7-3-9.3-5.5s-4.6-5.5-6.1-9c-1.5-3.6-2.2-7.6-2.2-12.2c0-4.5,0.7-8.6,2.2-12.2c1.5-3.6,3.5-6.6,6.2-9
			c2.6-2.5,5.8-4.3,9.5-5.6s7.8-1.9,12.2-1.9c3.5,0,6.8,0.4,9.7,1.1c2.9,0.7,5.5,1.6,7.7,2.6c-0.4,0.8-0.8,1.8-1,3
			c-0.3,1.3-0.5,2.4-0.6,3.2l-0.5,0.2c-0.5-0.6-1.3-1.4-2.2-2.2c-1-0.8-2.1-1.6-3.4-2.3c-1.3-0.7-2.7-1.4-4.3-1.9s-3.4-0.8-5.3-0.8
			c-3.2,0-6.1,0.5-8.8,1.5s-5.1,2.6-7.1,4.7s-3.6,4.8-4.7,8c-1.1,3.2-1.7,7.1-1.7,11.5c0,4.4,0.6,8.3,1.7,11.5
			c1.1,3.2,2.7,5.9,4.7,8s4.4,3.7,7.1,4.7c2.7,1,5.6,1.5,8.8,1.5c1.9,0,3.7-0.2,5.3-0.7s3.1-1.1,4.5-1.7c1.4-0.7,2.6-1.4,3.7-2.2
			c1.1-0.8,2-1.5,2.8-2l0.3,0.3l-0.7,4.7C227.1,224,226.3,224.5,225.2,225z"/>
		<path class="st1" d="M238.6,192.6c2.4-1.8,4.6-3,6.7-3.7c2-0.6,4.1-1,6.3-1c1.9,0,3.7,0.3,5.3,0.8c1.6,0.6,3,1.4,4.1,2.4
			s2,2.3,2.6,3.8s1,3.1,1,4.9c0,3-0.1,6.1-0.2,9.1s-0.2,6.2-0.2,9.6c0,0.6,0,1.3,0,2s0.1,1.4,0.4,1.9c0.2,0.6,0.5,1,0.9,1.4
			s1,0.6,1.8,0.6c0.3,0,0.5,0,0.8,0s0.6-0.1,0.8-0.3v1.8c-0.6,0.3-1.3,0.5-2.2,0.6c-0.9,0.2-1.9,0.2-2.9,0.2c-1.7,0-3-0.4-3.9-1.3
			s-1.4-2-1.6-3.4c-1.9,1.9-3.8,3.3-5.7,4.3c-1.9,0.9-4.2,1.4-6.9,1.4c-1.3,0-2.6-0.2-3.9-0.6s-2.4-1-3.4-1.8
			c-1-0.9-1.8-1.9-2.4-3.1c-0.6-1.2-0.9-2.6-0.9-4.1c0-3.2,1-5.7,3-7.5s4.8-2.9,8.3-3.5c2.9-0.5,5.1-0.9,6.8-1.2
			c1.6-0.3,2.8-0.7,3.6-1.1c0.8-0.4,1.2-0.8,1.4-1.3c0.2-0.5,0.2-1.2,0.2-2c0-1.3-0.2-2.6-0.5-3.9c-0.3-1.2-0.8-2.3-1.5-3.2
			c-0.7-0.9-1.6-1.6-2.7-2.2s-2.5-0.8-4.1-0.8c-2.1,0-4.1,0.5-6,1.4s-3.2,2.3-4.1,4h-0.9L238.6,192.6L238.6,192.6z M258.4,206.9
			c-0.9,0.3-2,0.6-3.2,0.8c-1.2,0.2-2.4,0.4-3.7,0.7c-1.2,0.2-2.4,0.5-3.7,0.9c-1.2,0.4-2.3,0.9-3.2,1.5c-0.9,0.6-1.7,1.4-2.2,2.4
			c-0.6,1-0.8,2.2-0.8,3.7c0,2.5,0.7,4.4,2.2,5.7c1.4,1.3,3,1.9,4.8,1.9c2,0,3.9-0.6,5.6-1.7s3-2.4,3.9-3.9L258.4,206.9z"/>
		<path class="st1" d="M301.8,195.3c-1.6-2.1-3.7-3.1-6.4-3.1c-3.7,0-6.5,1.2-8.2,3.5s-2.6,5.5-2.6,9.7v6.8c0,2.4,0,4.9,0.1,7.6
			s0.3,5,0.5,7.2c-1.2-0.1-2.4-0.2-3.6-0.2s-2.4,0.1-3.6,0.2c0.3-2.1,0.4-4.5,0.5-7.2c0.1-2.6,0.1-5.2,0.1-7.6v-8.4
			c0-2.4,0-4.9-0.1-7.6c-0.1-2.6-0.3-5.1-0.5-7.4c1.5,0.3,2.7,0.4,3.6,0.4c0.4,0,0.9,0,1.4-0.1s1.1-0.2,1.8-0.3
			c-0.2,2.1-0.2,4.3-0.2,6.4h0.2c1.5-2.3,3.3-4.1,5.4-5.3c2.1-1.3,4.6-1.9,7.5-1.9c1.5,0,3,0.2,4.5,0.6c1.5,0.4,2.9,1.2,4.1,2.2
			s2.2,2.5,3,4.3s1.2,4.1,1.2,6.9c0,2.3-0.1,4.7-0.2,7.1s-0.2,5-0.2,7.7v5.2c0,0.9,0,1.7,0,2.5s0.1,1.6,0.1,2.4
			c-1.1-0.1-2.2-0.2-3.4-0.2c-1.1,0-2.2,0.1-3.3,0.2c0.1-2.8,0.2-5.6,0.4-8.6c0.1-2.9,0.2-6,0.2-9.1v-4.9
			C304.1,200.3,303.3,197.3,301.8,195.3z"/>
		<path class="st1" d="M385.8,225c-1,0.5-2.3,1-3.8,1.4s-3.1,0.8-4.9,1.1c-1.8,0.3-3.7,0.5-5.7,0.5c-4.2,0-8.1-0.6-11.7-1.8
			c-3.6-1.2-6.7-3-9.3-5.5c-2.6-2.5-4.6-5.5-6.1-9c-1.5-3.6-2.2-7.6-2.2-12.2c0-4.5,0.7-8.6,2.2-12.2c1.5-3.6,3.5-6.6,6.2-9
			c2.6-2.5,5.8-4.3,9.5-5.6s7.8-1.9,12.2-1.9c3.5,0,6.8,0.4,9.7,1.1c2.9,0.7,5.5,1.6,7.7,2.6c-0.4,0.8-0.8,1.8-1,3
			c-0.3,1.3-0.5,2.4-0.6,3.2l-0.5,0.2c-0.5-0.6-1.3-1.4-2.2-2.2s-2.1-1.6-3.4-2.3s-2.7-1.4-4.3-1.9c-1.6-0.5-3.4-0.8-5.3-0.8
			c-3.2,0-6.1,0.5-8.8,1.5c-2.7,1-5.1,2.6-7.1,4.7s-3.6,4.8-4.7,8s-1.7,7.1-1.7,11.5c0,4.4,0.6,8.3,1.7,11.5s2.7,5.9,4.7,8
			s4.4,3.7,7.1,4.7s5.6,1.5,8.8,1.5c1.9,0,3.7-0.2,5.3-0.7c1.6-0.5,3.1-1.1,4.5-1.7c1.4-0.7,2.6-1.4,3.7-2.2c1.1-0.8,2-1.5,2.8-2
			l0.3,0.3l-0.7,4.7C387.6,224,386.9,224.5,385.8,225z"/>
		<path class="st1" d="M415.2,194.5c-0.8-0.3-1.6-0.4-2.4-0.4c-1.3,0-2.4,0.3-3.5,0.9c-1,0.6-1.9,1.4-2.6,2.4s-1.2,2.2-1.6,3.5
			c-0.4,1.4-0.6,2.8-0.6,4.4v8.8c0,3.6,0,6.3,0,8.2c0,1.9,0.1,3.4,0.3,4.6c-1.1-0.1-2.1-0.2-3.2-0.2c-1.2,0-2.3,0.1-3.4,0.2
			c0.2-1.8,0.3-4.3,0.3-7.4s0-7,0-11.5v-2.6c0-2.1,0-4.5,0-7.2s-0.1-5.9-0.3-9.4c0.6,0.1,1.1,0.2,1.7,0.3c0.5,0.1,1.1,0.1,1.7,0.1
			c0.5,0,1,0,1.5-0.1s1.1-0.2,1.7-0.3c-0.2,1.9-0.3,3.5-0.4,4.6c0,1.1,0,2.2,0,3.2l0.2,0.1c3.2-5.8,6.7-8.7,10.6-8.7
			c0.5,0,0.9,0,1.2,0.1c0.3,0.1,0.8,0.2,1.3,0.4c-0.3,0.6-0.4,1.6-0.5,2.9c-0.1,1.3-0.1,2.5-0.1,3.6l-0.6,0.4
			C416.5,195,416,194.8,415.2,194.5z"/>
		<path class="st1" d="M425.1,214.8c0-2.8,0-5.3,0.1-7.3s0.1-4,0.1-6c0-1.9,0-3.9,0-6.1s-0.1-4.4-0.1-6.7c1.3,0.3,2.5,0.4,3.4,0.4
			s2-0.1,3.3-0.4c-0.3,3.2-0.5,6.7-0.6,10.6c-0.1,3.8-0.2,7.7-0.2,11.8c0,2.8,0.2,4.9,0.7,6.4s1.1,2.6,1.8,3.3
			c0.7,0.9,1.7,1.6,2.8,2.1c1.2,0.6,2.5,0.8,4.1,0.8c2.2,0,4.1-0.5,5.6-1.5s2.6-2.2,3.3-3.7c0.4-0.9,0.7-1.7,0.9-2.3
			c0.2-0.6,0.4-1.5,0.5-2.6s0.2-2.5,0.2-4.3s0-4.3,0-7.5v-6.7c0-1.2,0-2.3,0-3.4s-0.1-2.1-0.1-3c0.6,0.1,1.1,0.2,1.7,0.3
			c0.5,0.1,1.1,0.1,1.7,0.1s1.1,0,1.7-0.1c0.5-0.1,1.1-0.2,1.6-0.3c-0.3,4.2-0.4,8.2-0.5,12.1s-0.1,8-0.1,12.3c0,2.4,0,4.8,0.1,7.1
			c0.1,2.3,0.1,4.5,0.2,6.7c-1.1-0.1-2.1-0.2-3.1-0.2s-2.1,0.1-3.1,0.2c0.1-0.5,0.1-1,0.1-1.5s0-1.1,0-1.7v-3.5H451
			c-1.4,2.6-3.2,4.5-5.4,5.7c-2.2,1.2-4.6,1.8-7.1,1.8c-4.2,0-7.5-1.1-9.8-3.3C426.3,222.2,425.1,219,425.1,214.8z"/>
		<path class="st1" d="M473.5,217.1c2.4-3.2,4.8-6.3,7.1-9.3c2.3-3,4.5-5.9,6.5-8.7s3.7-5.1,5.2-7c-0.4,0-1.4,0-3.2,0.1
			c-1.7,0.1-3.7,0.1-6,0.3c-2.2,0.1-4.5,0.3-6.9,0.4s-4.2,0.3-5.7,0.4c0.2-0.7,0.2-1.5,0.2-2.2s-0.1-1.5-0.2-2.3
			c1.7,0.2,4.2,0.3,7.5,0.3c3.3,0.1,7.5,0.1,12.5,0.1c1.1,0,2.1,0,3,0c1,0,1.8,0,2.6-0.1s1.6-0.1,2.4-0.2c0.8-0.1,1.6-0.1,2.4-0.2
			v1.2c-2.1,2.8-4.5,5.8-7,9.2c-2.5,3.3-5,6.6-7.4,9.8c-2.4,3.2-4.6,6.1-6.6,8.7s-3.5,4.7-4.5,6.1c2.2,0,4.2,0,6.1,0
			c1.8,0,3.7-0.1,5.6-0.2s3.9-0.2,6-0.3c2.1-0.1,4.6-0.3,7.5-0.6c-0.2,0.6-0.3,1.4-0.3,2.2c0,0.9,0.1,1.5,0.3,2
			c-3.4-0.1-6.7-0.2-10-0.2s-6.7,0-10,0c-2.4,0-4.8,0-7.1,0s-4.7,0.1-7.1,0.2v-0.9C468.7,223.2,471,220.3,473.5,217.1z"/>
	</g>
	<g>
		<g>
			<rect x="8.7" y="10.8" class="st1" width="2" height="100.5"/>
		</g>
		<g>
			<rect x="9.5" y="10.7" class="st1" width="100.5" height="2"/>
		</g>
	</g>
	<g>
		<g>
			
				<rect x="508" y="207.2" transform="matrix(1.464839e-03 -1 1 1.464839e-03 349.2852 766.1675)" class="st1" width="100.5" height="2"/>
		</g>
		<g>
			<rect x="457.9" y="256.6" class="st1" width="100.5" height="2"/>
		</g>
	</g>
</g>
</svg>
